<?xml version="1.0" encoding="UTF-8"?>
<svg id="Layer_1" xmlns="http://www.w3.org/2000/svg" version="1.1" viewBox="0 0 160 160">
  <!-- Generator: Adobe Illustrator 29.8.5, SVG Export Plug-In . SVG Version: 2.1.1 Build 2)  -->
  <defs>
    <style>
      .st0 {
        font-family: Aller, Aller;
        font-size: 13.59px;
        letter-spacing: 0em;
      }

      .st1, .st2 {
        fill: red;
      }

      .st2 {
        font-family: Aller-Bold, Aller;
        font-size: 16.45px;
        font-weight: 700;
        letter-spacing: .07em;
      }
    </style>
  </defs>
  <path class="st1" d="M57.38,40.22c1.9.49,3.88.74,5.76,1.31,5.29,1.58,10.15,4.82,13.89,8.65,1.53-1.46,2.94-2.89,4.71-4.1,16.29-11.02,46.28-1.37,42.23,20.21-1.54,8.19-8.23,12.96-15.08,17.22-9.39,5.83-19.71,10.39-27.93,17.88l.55-5.64c-.49-5.06-1.79-10.1-5.16-14.15,4.92-4.76,11.89-7.17,17.69-10.82,3.44-2.16,9.6-6.27,4.83-10.35-3.81-3.26-9.42.93-12.38,3.45-3.4,2.9-6.15,6.59-9.2,9.82-2.49-2.14-4.68-4.57-7.26-6.62-3.69-2.94-10.71-7.93-15.7-7.19-3.22.48-4.53,4.67-3.21,7.16,2.21,4.14,13.98,8.46,18.45,11.25,15.52,9.67,12.14,32.27-4.73,38.64-13.02,4.92-25.81-2.09-36-9.32l10.65-12.57c4.27,2.77,11.1,9.51,16.56,5.78,4.18-2.86,1.94-5.66-1.17-8.02-6.73-5.1-14.91-8.04-20.96-14.39-3.47-3.64-5.69-7.87-6.55-12.74.12-1.52-.16-3.21,0-4.71,1.19-11.19,12.83-19.76,24.17-20.76h5.82Z"/>
  <text class="st0" transform="translate(87.64 119.78) scale(.85 1)"><tspan x="0" y="0">Frivillig</tspan></text>
  <text class="st2" transform="translate(87.64 107.7) scale(.98 1)"><tspan x="0" y="0">SIND</tspan></text>
</svg>